<svg xmlns="http://www.w3.org/2000/svg" fill="none" viewBox="0 0 200 200">
<!-- SVG created with Arrow, by QuiverAI (https://quiver.ai) -->
  <path d="m195.7 49.98v67.95c0 14.66-12.81 28.98-30.08 28.98-14.48 0-21.92-7.72-25.54-9.72l5.05-8.97 20.16-36.11c2-3.53 2.94-5.85 2.94-9.2s-1.3-5.93-2.94-8.92l-19.52-32.58-1.32-13.32c4.67-5.03 10.24-7.48 21.17-7.48 17.27 0 30.08 13.86 30.08 29.37z" fill="#C82606" stroke="#9B1900" stroke-miterlimit="10" stroke-width=".5"/>
  <path d="m189 52.19v61.87c0 13.77-10.25 26.68-23.73 26.68-9.1 0-14.54-4.6-18.57-8.03l18.25-33.81c2.7-4.99 5.93-10.02 5.93-15.78 0-5.03-3.48-10.47-5.61-14.21l-17.12-31.7c4.03-4.99 8.56-8.95 17.12-8.95 13.48 0 23.73 11.82 23.73 23.93z" fill="#FEFFFE" stroke="#9B1900" stroke-miterlimit="10" stroke-width=".5"/>
  <path d="m186.7 53.12v60c0 12.29-8.98 24.1-21.05 24.1-8.13 0-12.97-4.24-16.55-7.38l16.22-30.78c2.45-4.55 5.37-9.15 5.37-14.39 0-4.68-3.13-9.71-5.04-13.16l-15.32-32.42c3.62-4.6 7.72-7.48 15.32-7.48 12.07 0 21.05 10.5 21.05 21.51z" fill="#C82606" stroke="#9B1900" stroke-miterlimit="10" stroke-width=".5"/>
  <path d="m166.1 109.7c-0.92 4.68-3.16 11.5-0.92 15.92l-0.92 1.59h-7.35l0.91-0.92c2.24 0 4.07 0.46 6-0.92-2.38-5.11-1.63-9.3 0-15.22-2.38-2.81-5.13 5.05-4.22 12.41l0.92 2.28" stroke="#FEFFFE" stroke-miterlimit="10" stroke-width=".7"/>
  <path d="m170.6 100.2 4.1-0.46c3.21-0.61 4.92-1.92 6.93-3.27" stroke="#FEFFFE" stroke-miterlimit="10" stroke-width=".7"/>
  <path d="m166.1 97.02c4.1 0.92 9.15 1.38 12.8-0.91" stroke="#FEFFFE" stroke-miterlimit="10" stroke-width=".7"/>
  <path d="m170.6 117 2.26 0.46v7.86c1.84 0.92 2.27-2.35 2.27-6.94h3.21v-0.92l-3.21-0.46c0.92-2.32 2.75-4.61 0.92-7.42-1.84-1.83-5.04-1.37-5.45 0.46-0.48 2.81 0.88 4.19 1.79 6.96h-1.79v0.46-0.46z" stroke="#FEFFFE" stroke-miterlimit="10" stroke-width=".7"/>
  <path d="m165.2 61.01c5.5-2.29 13.27-0.94 17.4 5.04" stroke="#FEFFFE" stroke-miterlimit="10" stroke-width=".7"/>
  <path d="m167.9 63.29c5.5-0.92 9.15 0 13.28 3.22" stroke="#FEFFFE" stroke-miterlimit="10" stroke-width=".7"/>
  <path d="m177 70.64c-3.17 0-4.98 3.52-3.6 5.97 0.88 2.22 3.89 2.77 5.48 1.35 2.81-2.29 1.35-7.32-1.88-7.32z" stroke="#FEFFFE" stroke-miterlimit="10" stroke-width=".7"/>
  <path d="m176.5 72.47c-0.92 0.92-0.43 2.75 0.93 2.75v1.39" stroke="#FEFFFE" stroke-miterlimit="10" stroke-width=".7"/>
  <path d="m175.2 79.81v9.87" stroke="#FEFFFE" stroke-miterlimit="10" stroke-width=".7"/>
  <path d="m177.9 79.35v11.71h5.05" stroke="#FEFFFE" stroke-miterlimit="10" stroke-width=".7"/>
  <path d="m167 37.65c-3.19 1.38-0.91 6.41 0 9.63l1.83 6.43h8.65l-0.93-3.68 2.29-6.88c0.46-2.76-2.35-5.04-4.59-3.21-1.83 1.38-1.37 5.51-0.88 8.27l0.46 5.5" stroke="#FEFFFE" stroke-miterlimit="10" stroke-width=".7"/>
  <path d="m169.3 37.65c-2.28 0.92-0.48 5.05 0.44 7.8l0.92 8.26" stroke="#FEFFFE" stroke-miterlimit="10" stroke-width=".7"/>
  <path d="m167.4 54.17h10.96" stroke="#FEFFFE" stroke-miterlimit="10" stroke-width=".7"/>
  <path d="m4.31 49.98v67.95c0 14.66 11.4 28.98 28.67 28.98 11.77 0 16.82-5.8 22.8-8.69l-1.77-10-21.03-36.11c-2-3.53-3.83-5.85-3.83-9.2s1.83-5.93 3.83-8.92l20.54-35.78-6.86-14.1c-4.17-1.93-7.95-3.5-13.68-3.5-15.86 0-28.67 13.86-28.67 29.37z" fill="#165EA2" stroke="#00366A" stroke-miterlimit="10" stroke-width=".5"/>
  <path d="m9.71 52.19v61.87c0 13.77 10.25 25.75 23.27 25.75 9.1 0 14.07-4.1 18.56-8.06l-20.53-34.73c-2.45-4.55-4.29-7.7-4.29-12.94 0-4.67 2.49-8.2 4.29-11.64l19.68-35.23c-4.97-4.55-9.18-8.95-17.71-8.95-13.02 0-23.27 11.82-23.27 23.93z" fill="#FEFFFE" stroke="#00366A" stroke-miterlimit="10" stroke-width=".5"/>
  <path d="m12.06 52.19v60.93c0 12.29 8.98 23.64 20.92 23.64 8.13 0 12.51-3.65 16.09-6.79l-17.06-31.57c-2.45-4.55-4.84-9.08-4.84-14.32 0-4.67 2.93-9.12 4.84-12.57l16.65-33.37c-4.03-4.03-8.12-6.98-15.68-6.98-11.94 0-20.92 10.02-20.92 21.03z" fill="#165EA2" stroke="#00366A" stroke-miterlimit="10" stroke-width=".5"/>
  <path d="m17.12 95.19c2.28 4.55 7.74 5.47 14.6 5.01" stroke="#FEFFFE" stroke-miterlimit="10" stroke-width=".7"/>
  <path d="m18.48 94.27c1.83 4.1 7.75 4.1 12.78 3.64" stroke="#FEFFFE" stroke-miterlimit="10" stroke-width=".7"/>
  <path d="m17.56 65.62c4.09-5.03 10.51-5.49 18.28-4.11" stroke="#FEFFFE" stroke-miterlimit="10" stroke-width=".7"/>
  <path d="m19.39 66.51c3.2-3.65 8.7-4.11 15.53-3.19" stroke="#FEFFFE" stroke-miterlimit="10" stroke-width=".7"/>
  <path d="m21.22 80.27v9.41" stroke="#FEFFFE" stroke-miterlimit="10" stroke-width=".7"/>
  <path d="m24.87 79.81v10.33" stroke="#FEFFFE" stroke-miterlimit="10" stroke-width=".7"/>
  <path d="m16.21 90.6h10.45" stroke="#FEFFFE" stroke-miterlimit="10" stroke-width=".7"/>
  <path d="m22.11 117 3.2 0.46v7.86c2.29 0.92 2.32-2.35 2.32-6.94h4.09v-0.92l-3.2-0.46c0.91-2.32 2.27-4.61 0.91-7.42-1.83-1.83-4.57-1.37-5.96 0.46-0.91 2.32 0.45 4.19 1.36 6.96h-3.21v0.46l0.49-0.46z" stroke="#FEFFFE" stroke-miterlimit="10" stroke-width=".7"/>
  <path d="m32.63 109.2c0.92-1.39 4.12-0.47 5.04 1.36 0.91 4.55 1.83 10.53-0.45 14.25l-4.13-0.46c3.2-3.26 2.74-8.74 0.46-13.33l-0.92-1.82z" stroke="#FEFFFE" stroke-miterlimit="10" stroke-width=".7"/>
  <path d="m20.28 39.94c-1.83 2.29-0.91 4.58 0.45 6.87 1.38 1.83 1.84 3.66 1.84 6.9h9.12l0.92-5.5c0.91-2.76 2.74-6.89 0.46-10.1-1.83-1.39-4.58 0.92-4.58 4.12l-2.31 6.88-0.46 4.13c0-3.21-0.46-5.96-2.29-8.72-0.92-1.83-0.92-5.49-3.15-4.58z" stroke="#FEFFFE" stroke-miterlimit="10" stroke-width=".7"/>
  <path d="m29.41 40.39c-0.92 2.76-2.3 6.89-2.3 12.85" stroke="#FEFFFE" stroke-miterlimit="10" stroke-width=".7"/>
  <path d="m19.37 54.17h15.35" stroke="#FEFFFE" stroke-miterlimit="10" stroke-width=".7"/>
  <path d="m16.66 74.81c0-3.13 3.05-4.63 4.99-4.17 3.21 0 5.04 2.39 5.04 4.58 0 3-2.77 4.13-4.58 4.13-2.74 0-5.45-2.29-5.45-4.54z" stroke="#FEFFFE" stroke-miterlimit="10" stroke-width=".7"/>
  <path d="m22.57 72.47c-2.29 0.46-2.75 3.21-1.36 4.59 0.92 0.92 2.75 0.46 3.2-0.45 0.92-1.83 0-4.14-1.84-4.14z" stroke="#FEFFFE" stroke-miterlimit="10" stroke-width=".7"/>
  <path d="m22.57 73.85-0.46 1.83" stroke="#FEFFFE" stroke-miterlimit="10" stroke-width=".7"/>
  <path d="m61.52 25.03c2.74-3.68 4.13-4.6 12.36-4.6h56.33c5.05 0 7.33 1.83 9.61 5.93l24.41 41.97c2.28 4.13 5.02 8.68 5.02 13.71 0 5.48-3.64 11.43-5.93 15.49l-23.31 40.58c-3.2 4.55-5.49 7.77-14.14 7.77h-56.33c-6.86 0-9.6-3.68-12.35-9.16l-28.41-46.81c-1.35-2.75-2.27-4.58-1.81-8.26 0.46-3.22 2.29-5.97 3.65-8.26l26.31-45.13 4.59-3.23z" fill="#E1A014" stroke="#C38000" stroke-miterlimit="10" stroke-width=".5"/>
  <path d="m53.72 28.26 1.83 0.92-2.28 4.55-1.83-2.28 2.28-3.19z" fill="#FEFFFE" stroke="#00366A" stroke-miterlimit="10" stroke-width=".5"/>
  <path d="m145.1 26.43-1.83-0.92-3.65 1.83 4.57 7.29 2.28-3.18-1.37-5.02z" fill="#FEFFFE" stroke="#FEFFFE" stroke-miterlimit="10" stroke-width=".5"/>
  <path d="m61.52 25.03c1.83-2.75 4.11-4.13 8.69-4.13h60.91c4.1 0 5.93 1.38 8.21 4.61" stroke="#C38000" stroke-miterlimit="10" stroke-width=".5"/>
  <path d="m63.35 26.86 3.2-0.46-0.92 2.29 1.83-0.46-4.11 5.5" stroke="#C38000" stroke-miterlimit="10" stroke-width=".25"/>
  <path d="m70.21 20.9 2.75 2.29-2.75 1.83v-4.12z" fill="#C38000" stroke="#C38000" stroke-miterlimit="10" stroke-width=".25"/>
  <path d="m91.24 25.48 2.74-1.83-0.46 1.83h-2.28z" fill="#C38000" stroke="#C38000" stroke-miterlimit="10" stroke-width=".25"/>
  <path d="m102.2 20.43 2.29 0.47-1.38 0.45-0.91-0.92z" fill="#C38000" stroke="#C38000" stroke-miterlimit="10" stroke-width=".25"/>
  <path d="m117.5 21.81 5.95 0.47-3.23 5.03-2.72-3.66v-1.84z" fill="#C38000" stroke="#C38000" stroke-miterlimit="10" stroke-width=".25"/>
  <path d="m127.1 21.35 5.95 2.76 1.36 2.29-3.23 0.46-4.54-2.75 0.46-2.76z" fill="#C38000" stroke="#C38000" stroke-miterlimit="10" stroke-width=".25"/>
  <path d="m54.18 37.21 4.57-1.38 3.2 6.4-8.23-3.2 0.46-1.82z" fill="#C38000" stroke="#C38000" stroke-miterlimit="10" stroke-width=".25"/>
  <path d="m65.13 44.52 0.91 5.51-0.91-2.75v-2.76z" fill="#C38000" stroke="#C38000" stroke-miterlimit="10" stroke-width=".25"/>
  <path d="m145.6 42.23 5.02 7.33-2.28 0.92-2.74-3.2v-5.05z" fill="#C38000" stroke="#C38000" stroke-miterlimit="10" stroke-width=".25"/>
  <path d="m151.1 51.83 3.65 9.88 4.13 4.55 2.25 3.22-3.65-1.83-5.02-5.48-4.58-6.85 3.22-3.49z" fill="#C38000" stroke="#C38000" stroke-miterlimit="10" stroke-width=".25"/>
  <path d="m155.2 73.39 7.31 4.13 2.74 4.13-0.91 5.48-7.77-6.86c-2.75-1.83-3.21-5.05-1.37-6.88z" fill="#C38000" stroke="#C38000" stroke-miterlimit="10" stroke-width=".25"/>
  <path d="m163.4 88.95-10 16.27-0.92 3.66-2.28 0.89 2.28-5.03 10.92-15.79z" fill="#C38000" stroke="#C38000" stroke-miterlimit="10" stroke-width=".25"/>
  <path d="m146.9 112.1-5.03 10.85-5.49 10.37-5.95 2.75 3.65-10.85 6.86-5.03 5.96-8.09z" fill="#C38000" stroke="#C38000" stroke-miterlimit="10" stroke-width=".25"/>
  <path d="m138.3 136.3-1.83 4.55-5.05 3.22-6.83 0.92-0.46-1.38 5.95-1.38 6.39-4.55 1.83-1.38z" fill="#C38000" stroke="#C38000" stroke-miterlimit="10" stroke-width=".25"/>
  <path d="m114.3 144.1 6.86 0.92v-0.92h-6.86z" fill="#C38000" stroke="#C38000" stroke-miterlimit="10" stroke-width=".25"/>
  <path d="m92.6 144.5 1.83-0.46h-1.37l-0.46 0.46z" fill="#C38000" stroke="#C38000" stroke-miterlimit="10" stroke-width=".25"/>
  <path d="m66.52 144.1 5.95 0.46-0.91-0.92-5.04 0.46z" fill="#C38000" stroke="#C38000" stroke-miterlimit="10" stroke-width=".25"/>
  <path d="m59.21 137.2 0.92 2.75 1.39-0.92-0.95-2.75-1.36 0.92z" fill="#C38000" stroke="#C38000" stroke-miterlimit="10" stroke-width=".25"/>
  <path d="m62.41 136.3 2.75 3.22-0.46 1.83 2.74-0.46 0.92 1.34-2.28 0.49-3.67-2.75v-3.67z" fill="#C38000" stroke="#C38000" stroke-miterlimit="10" stroke-width=".25"/>
  <path d="m75.67 140.4 1.83 0.46 0.46-0.46h-2.29z" fill="#C38000" stroke="#C38000" stroke-miterlimit="10" stroke-width=".25"/>
  <path d="m81.17 140.4 1.82 0.46 1.83-0.92-3.65 0.46z" fill="#C38000" stroke="#C38000" stroke-miterlimit="10" stroke-width=".25"/>
  <path d="m94.86 141.3 1.38 0.46-0.46-0.46h-0.92z" fill="#C38000" stroke="#C38000" stroke-miterlimit="10" stroke-width=".25"/>
  <path d="m104.4 140 1.83 0.46-0.46-0.46h-1.37z" fill="#C38000" stroke="#C38000" stroke-miterlimit="10" stroke-width=".25"/>
  <path d="m113.1 140 4.1-0.45 5.46 0.45-3.2-0.92-6.36 0.92z" fill="#C38000" stroke="#C38000" stroke-miterlimit="10" stroke-width=".25"/>
  <path d="m113.1 133.1 3.2-1.83 5.95 0.46-6.39 0.92-3.68 4.55 0.92-4.1z" fill="#C38000" stroke="#C38000" stroke-miterlimit="10" stroke-width=".25"/>
  <path d="m126.3 135.4 6.86-11.31-0.92 3.19-5.02 9.93-1.36 0.9 0.44-2.71z" fill="#9F6601" stroke="#9F6601" stroke-miterlimit="10" stroke-width=".5"/>
  <path d="m59.21 127.2-2.75 4.09v1.38l3.2-4.55 0.46-1.38-0.91 0.46z" fill="#9F6601" stroke="#9F6601" stroke-miterlimit="10" stroke-width=".5"/>
  <path d="m34.41 82.04 1.83 0.92 0.92 0.92-0.92-1.84h-1.83z" fill="#FFE9A6" stroke="#FFE9A6" stroke-miterlimit="10" stroke-width=".5"/>
  <path d="m36.7 91.92 1.35 0.92v-1.38l-0.89-0.92-0.46 1.38z" fill="#FFE9A6" stroke="#FFE9A6" stroke-miterlimit="10" stroke-width=".5"/>
  <path d="m128.1 49.56 1.36 0.92v-0.92h-1.36z" fill="#C38000" stroke="#C38000" stroke-miterlimit="10" stroke-width=".5"/>
  <path d="m85.28 33.73v0.9l0.46-0.9h-0.46z" fill="#FFE9A6" stroke="#FFE9A6" stroke-miterlimit="10" stroke-width=".5"/>
  <path d="m61.52 178.8h0.46" stroke="#00366A" stroke-miterlimit="10" stroke-width=".5"/>
  <path d="m144.2 138.1 1.83 1.4-0.92-0.47-0.91-0.93z" fill="#9B1900" stroke="#9B1900" stroke-miterlimit="10" stroke-width=".5"/>
  <path d="m151.5 144.1 1.39 0.92-0.47-0.46-0.92-0.46z" fill="#9B1900" stroke="#9B1900" stroke-miterlimit="10" stroke-width=".5"/>
  <path d="m20.31 23.65 0.91-0.92 0.46 0.46-1.37 0.46z" fill="#00366A" stroke="#00366A" stroke-miterlimit="10" stroke-width=".5"/>
  <path d="m12.51 138.1 1.35 1.4-0.46-0.47-0.89-0.93z" fill="#00366A" stroke="#00366A" stroke-miterlimit="10" stroke-width=".5"/>
  <path d="m184.4 138.6 3.65-3.22-0.46 0.92-3.19 2.3z" fill="#9B1900" stroke="#9B1900" stroke-miterlimit="10" stroke-width=".5"/>
  <path d="m188.9 134 0.92-1.38-0.46 0.92-0.46 0.46z" fill="#9B1900" stroke="#9B1900" stroke-miterlimit="10" stroke-width=".5"/>
  <path d="m32.52 147.3h2.28l-1.36 0.45-0.92-0.45z" fill="#00366A" stroke="#00366A" stroke-miterlimit="10" stroke-width=".5"/>
  <path d="m53.27 140 1.35-0.92v0.47l-1.35 0.45z" fill="#00366A" stroke="#00366A" stroke-miterlimit="10" stroke-width=".5"/>
  <path d="m139.6 138.6 0.92-0.46-0.92 0.92v-0.46z" fill="#9B1900" stroke="#9B1900" stroke-miterlimit="10" stroke-width=".5"/>
  <path d="m139.2 61.71c-10.95-1.38-15.97-6.41-28.57-10.96-6.86-2.74-14.17-3.2-25.58-0.45-8.68 2.32-17.8 9.17-31.37 11.46v3.25c14 0 23.61-6.4 33.16-9.15 6.86-1.83 13.25-2.29 20.56 0 9.58 2.75 15.97 8.69 29.04 9.12 4.57 0.46 6.4 0.46 6.86-0.89 0.46-1.83 0-2.38-4.1-2.38z" fill="#FEFFFE"/>
  <path d="m141.9 73.85c-8.68-1.38-24.49-13.72-41.2-14.64h-6.39c-13.54 0.46-24.94 9.55-40.79 10.47v2.79c0.92 1.38 4.12 0.92 10.51 0.92 2.74 4.13 5.49 5.96 9.62 8.26 0.46 5.48-2.29 9.61-6.42 9.61-2.75 0-5.03-0.92-7.78-1.84l18.76 26.66v-31.21c13.05 15.79 25.09 36.72 46.99 37.18 10.48 0 16.43-8.21 15.97-16-0.46-7.33-5.96-11.42-11.91-11.42-6.39 0-8.67 6.46-8.67 10.52 0 5.03 4.13 8.69 8.26 8.23s5.96-4.11 5.5-6.87c-0.92-3.65-4.15-4.57-7.35-2.74-1.35 0.46-0.89 3.21-1.35 1.83-0.92-1.83 0.46-5.05 4.11-5.05 4.57 0 6.85 4.13 6.85 7.34 0 4.55-5.49 8.65-9.59 8.65-15.35 0.47-24.9-12.31-36.77-30.3-0.46-0.46-1.38-0.92-1.84-0.92 4.13 0.92 5.96 1.38 11.91 1.38 13.54 0 22.22-3.68 33.18-10.08 3.65 1.39 4.11 2.31 6.39 2.31 3.38 0 3.38-3.71 2.01-5.08zm-71.26-1.38c5.5-3.22 10.07-5.05 14.64-6.43-2.74 5.48-1.36 10.07 3.67 14.62-7.32-0.88-13.74-4.05-18.31-8.19zm27.81 9.57c5.49-3.22 8.69-9.63 5.04-17.43 8.19 0.92 14.58 5.05 23.26 9.24-7.34 5.93-15.57 8.65-28.3 8.19z" fill="#FEFFFE"/>
</svg>